<svg width="29" height="28" viewBox="0 0 29 28" fill="none" xmlns="http://www.w3.org/2000/svg">
<path d="M16.9453 1.76968L14.9709 12.1433L22.1236 12.1673L12.3875 26.2303L14.3619 14.8177L7.20967 14.7927L16.9453 1.76968ZM16.9467 0.019708C16.8994 0.019708 16.8522 0.0214307 16.8058 0.0249033C16.4969 0.0498682 16.2922 0.153118 16.0494 0.316306C15.9127 0.407453 15.7894 0.517314 15.6832 0.642681C15.6513 0.680307 15.6212 0.719435 15.593 0.759931L5.78736 13.7375C5.40017 14.2682 5.34329 14.9686 5.64079 15.554C5.93786 16.1394 6.53854 16.5104 7.19698 16.5152L12.2484 16.552L10.6602 25.9088C10.5093 26.7129 10.938 27.5144 11.6927 27.8373C11.9121 27.9315 12.1483 27.9801 12.387 27.9799C12.937 27.9799 13.3889 27.7226 13.728 27.258L23.5459 13.195C23.9331 12.6643 23.9896 11.963 23.6925 11.3785C23.3954 10.7931 22.7947 10.4221 22.1363 10.4173L17.0849 10.4085L18.656 2.18134C18.6893 2.04665 18.706 1.9084 18.7059 1.76965C18.7059 0.822903 17.952 0.0511533 17.0088 0.0205283C16.9878 0.0196533 16.9672 0.0196533 16.9467 0.0196533L16.9467 0.019708Z" fill="white"/>
</svg>
