<svg width="30" height="28" viewBox="0 0 30 28" fill="none" xmlns="http://www.w3.org/2000/svg">
<g clip-path="url(#clip0_144_59)">
<path d="M10.3555 16.7802C7.36984 16.7802 4.3864 16.7802 1.40076 16.7802C0.44509 16.7802 0.271531 16.5276 0.576906 15.6005C1.92583 11.5032 5.29813 8.9811 9.61951 8.78117C12.3877 8.65375 14.9361 9.22935 17.2033 10.8946C18.9433 12.1732 19.7957 13.9901 20.4153 15.9674C20.5471 16.387 20.3933 16.6374 19.9847 16.7275C19.765 16.7758 19.5343 16.7978 19.3102 16.8C16.3268 16.8044 13.3411 16.8022 10.3577 16.8022C10.3577 16.7956 10.3577 16.789 10.3577 16.7802H10.3555Z" fill="white"/>
<path d="M21.3381 24.5684C21.259 22.5252 21.1887 20.5568 21.1009 18.5905C21.0767 18.0413 21.0943 17.5602 21.404 17.0351C21.6259 16.6594 21.6106 16.0465 21.4963 15.5895C21.0284 13.7177 19.9958 12.1645 18.6051 10.8397C18.436 10.6793 18.2844 10.5014 18.0186 10.2202H28.4826C28.4936 10.4355 28.5133 10.6552 28.5133 10.8749C28.5133 15.1457 28.5133 19.4144 28.5133 23.6852C28.5133 24.5662 28.4035 24.6233 27.4984 24.5948C26.2131 24.553 24.9279 24.5728 23.6427 24.5684C22.9089 24.5662 22.1752 24.5684 21.3381 24.5684Z" fill="white"/>
<path d="M24.9323 5.61539C26.2504 5.61539 27.4873 5.64395 28.722 5.60441C29.3745 5.58244 29.5788 5.85266 29.5568 6.45462C29.5326 7.1203 29.5458 7.78597 29.5502 8.45164C29.5546 8.92398 29.3613 9.17443 28.856 9.17443C25.1827 9.16784 21.5116 9.16784 17.8383 9.17443C17.3484 9.17443 17.1133 8.96792 17.1177 8.478C17.1221 7.74423 17.1221 7.00825 17.1177 6.27447C17.1155 5.77797 17.3528 5.60001 17.8471 5.6066C19.5212 5.62638 21.1953 5.61539 22.955 5.61539C23.1483 4.57624 23.3636 3.55466 23.5218 2.52649C23.6119 1.9443 23.8733 1.56643 24.4292 1.35552C25.4991 0.951288 26.558 0.516294 27.6235 0.103269C28.2496 -0.138395 28.7483 0.0505423 28.9878 0.599777C29.2207 1.13363 28.9768 1.79491 28.4078 2.03658C27.5664 2.39248 26.692 2.67369 25.8616 3.05596C25.6067 3.17459 25.3585 3.48875 25.275 3.76337C25.1058 4.32798 25.0509 4.92555 24.9301 5.61539H24.9323Z" fill="white"/>
<path d="M10.4849 24.7969C13.3804 24.7969 16.276 24.7925 19.1716 24.8035C19.4594 24.8035 19.7867 24.8452 20.0196 24.9902C20.2217 25.1176 20.4041 25.4032 20.4414 25.6427C20.5337 26.2337 18.9277 27.9934 18.3258 27.9934C13.0641 27.9978 7.80241 28.0044 2.53854 27.978C2.24635 27.978 1.90143 27.7539 1.67954 27.5365C1.32143 27.1871 0.998485 26.7807 0.75023 26.3479C0.58546 26.0623 0.418492 25.6053 0.539324 25.3769C0.686519 25.1 1.12591 24.9616 1.45765 24.8057C1.58946 24.7441 1.774 24.7947 1.93438 24.7947C4.78381 24.7947 7.63324 24.7947 10.4827 24.7947L10.4849 24.7969Z" fill="white"/>
<path d="M10.6456 18.2698C13.3786 18.2698 16.1138 18.2698 18.8468 18.2698C19.8024 18.2698 20.2352 18.6674 20.2484 19.5484C20.2616 20.4711 19.6882 21.0796 18.7852 21.0774C13.3412 21.0709 7.89722 21.0577 2.451 21.0599C1.87101 21.0599 1.39427 20.9346 1.17019 20.3525C0.932916 19.7395 0.915341 19.1002 1.39867 18.6169C1.62056 18.395 2.04237 18.2851 2.37411 18.2807C5.13127 18.2544 7.88843 18.2654 10.6434 18.2676L10.6456 18.2698Z" fill="white"/>
<path d="M1.06885 23.9708C1.22044 22.8548 1.84437 22.2243 2.79345 21.9453C3.99957 21.5893 5.05849 21.8859 5.92628 22.9009C6.53703 22.1957 7.29058 21.7959 8.20451 21.8046C9.09866 21.8134 9.84123 22.1891 10.4454 22.9251C11.0539 22.1935 11.8053 21.7915 12.7258 21.8046C13.6156 21.8178 14.3581 22.1913 14.9491 22.8965C15.8762 21.8618 16.9769 21.5476 18.2599 22.0156C19.1475 22.3385 19.6945 22.958 19.8175 23.9686C19.1431 23.984 18.5169 24.252 18.0578 23.3974C17.7019 22.7318 16.5397 22.8504 16.2124 23.5534C16.0036 24.0016 15.7334 24.0258 15.3555 24.0126C15.0568 24.0016 14.758 23.995 14.4592 24.0126C14.1099 24.0345 13.9034 23.9445 13.7122 23.5908C13.2728 22.7779 12.1085 22.7581 11.6911 23.571C11.4867 23.9686 11.2626 24.0301 10.9002 24.0104C10.6255 23.995 10.3487 23.995 10.0741 24.0104C9.66767 24.0345 9.39525 23.9708 9.16457 23.5314C8.77571 22.7911 7.58937 22.7757 7.22028 23.5117C6.97422 23.9994 6.66885 24.0345 6.24044 24.0126C5.94166 23.9972 5.63189 24.0587 5.34849 23.9928C5.13099 23.9423 4.87395 23.7973 4.75531 23.6149C4.28517 22.8899 3.15814 22.7076 2.80223 23.4304C2.47709 24.0895 2.02891 24.0016 1.52361 24.006C1.3896 24.006 1.25559 23.9862 1.07104 23.9708H1.06885Z" fill="white"/>
</g>
<defs>
<clipPath id="clip0_144_59">
<rect width="29.1182" height="28" fill="white" transform="translate(0.440918)"/>
</clipPath>
</defs>
</svg>
