<svg width="29" height="28" viewBox="0 0 29 28" fill="none" xmlns="http://www.w3.org/2000/svg">
<path d="M23.3678 7H21.0326V8.16484C21.0326 9.45 19.9881 10.5 18.6975 10.5C17.4123 10.5 16.3623 9.45547 16.3623 8.16484V7H11.6975V8.16484C11.6975 9.45 10.6529 10.5 9.36231 10.5C8.07715 10.5 7.02715 9.45547 7.02715 8.16484V7H4.70293C4.70293 18.6648 3.53809 28 3.53809 28H24.5381C24.5326 28 23.3678 18.6648 23.3678 7ZM9.36777 9.33516C10.0131 9.33516 10.5326 8.81562 10.5326 8.17031V5.83516C10.5326 3.89922 12.0967 2.33516 14.0326 2.33516C15.9686 2.33516 17.5326 3.89922 17.5326 5.83516V8.17031C17.5326 8.81562 18.0521 9.33516 18.6975 9.33516C19.3428 9.33516 19.8623 8.81562 19.8623 8.17031V5.83516C19.8678 2.61406 17.2537 0 14.0326 0C10.8115 0 8.19746 2.61406 8.19746 5.83516V8.17031C8.20293 8.81016 8.72246 9.33516 9.36777 9.33516Z" fill="white"/>
</svg>
