<svg width="28" height="28" viewBox="0 0 28 28" fill="none" xmlns="http://www.w3.org/2000/svg">
<path d="M3.5 21V15.1667C3.5 14.5478 3.74583 13.9543 4.18342 13.5167C4.621 13.0792 5.21449 12.8333 5.83333 12.8333V9.33332C5.83333 8.09565 6.325 6.90866 7.20017 6.03349C8.07534 5.15832 9.26232 4.66666 10.5 4.66666H17.5C18.7377 4.66666 19.9247 5.15832 20.7998 6.03349C21.675 6.90866 22.1667 8.09565 22.1667 9.33332V12.8333C22.7855 12.8333 23.379 13.0792 23.8166 13.5167C24.2542 13.9543 24.5 14.5478 24.5 15.1667V21C24.5 21.6188 24.2542 22.2123 23.8166 22.6499C23.379 23.0875 22.7855 23.3333 22.1667 23.3333C21.5478 23.3333 20.9543 23.0875 20.5168 22.6499C20.0792 22.2123 19.8333 21.6188 19.8333 21H8.16667C8.16667 21.6188 7.92083 22.2123 7.48325 22.6499C7.04566 23.0875 6.45217 23.3333 5.83333 23.3333C5.21449 23.3333 4.621 23.0875 4.18342 22.6499C3.74583 22.2123 3.5 21.6188 3.5 21ZM10.5 6.99999C9.88116 6.99999 9.28767 7.24582 8.85008 7.68341C8.4125 8.12099 8.16667 8.71448 8.16667 9.33332V12.8333H19.8333V9.33332C19.8333 8.71448 19.5875 8.12099 19.1499 7.68341C18.7123 7.24582 18.1188 6.99999 17.5 6.99999H10.5ZM7 17.5C7.30942 17.5 7.60616 17.3771 7.82496 17.1583C8.04375 16.9395 8.16667 16.6427 8.16667 16.3333C8.16667 16.0239 8.04375 15.7272 7.82496 15.5084C7.60616 15.2896 7.30942 15.1667 7 15.1667C6.69058 15.1667 6.39383 15.2896 6.17504 15.5084C5.95625 15.7272 5.83333 16.0239 5.83333 16.3333C5.83333 16.6427 5.95625 16.9395 6.17504 17.1583C6.39383 17.3771 6.69058 17.5 7 17.5ZM21 17.5C21.3094 17.5 21.6062 17.3771 21.825 17.1583C22.0438 16.9395 22.1667 16.6427 22.1667 16.3333C22.1667 16.0239 22.0438 15.7272 21.825 15.5084C21.6062 15.2896 21.3094 15.1667 21 15.1667C20.6906 15.1667 20.3938 15.2896 20.175 15.5084C19.9562 15.7272 19.8333 16.0239 19.8333 16.3333C19.8333 16.6427 19.9562 16.9395 20.175 17.1583C20.3938 17.3771 20.6906 17.5 21 17.5Z" fill="white"/>
</svg>
